<?xml version="1.0" encoding="UTF-8"?>
<!-- Generator: visioncortex VTracer 0.6.2 -->
<svg version="1.1" xmlns="http://www.w3.org/2000/svg" width="1280" height="1280">
<path d="M0 0 C3.40479686 2.94050638 4.75173024 6.13797682 5.34375 10.578125 C5.42109375 11.90070313 5.42109375 11.90070313 5.5 13.25 C5.82436022 17.51220708 6.46966756 21.47888808 7.4609375 25.62890625 C8.96949284 32.26436342 9.96468625 38.96935915 10.5 45.75 C10.81097964 49.6372455 11.478627 53.1385053 12.52734375 56.8828125 C13.3215135 60.44016792 13.50616198 64.04947552 13.75390625 67.6796875 C13.86539011 70.02276765 13.86539011 70.02276765 15 72 C15.36772405 74.47926451 15.70047375 76.95002811 16 79.4375 C16.63856819 84.78997193 16.63856819 84.78997193 18 90 C18.30540669 93.09224276 18.50832311 96.18511719 18.71875 99.28515625 C18.83496737 101.96382316 18.83496737 101.96382316 20 104 C20.36772405 106.47926451 20.70047375 108.95002811 21 111.4375 C21.63856819 116.78997193 21.63856819 116.78997193 23 122 C23.17710989 123.87230458 23.31867783 125.74809466 23.4375 127.625 C23.77827613 132.01839068 24.34148468 136.12753687 25.4140625 140.39453125 C26.04237874 143.18844413 26.46698841 145.99530917 26.90600586 148.82397461 C28.41591868 158.10099042 30.97956856 165.81353251 38.375 172.125 C39.24125 172.74375 40.1075 173.3625 41 174 C43.07723454 170.71984715 44.62349291 167.60895665 45.875 163.9375 C48.5302251 156.40760592 51.57501609 149.05369979 54.9375 141.8125 C58.12713518 134.75067397 60.47886564 127.31969343 63 120 C63.66 120 64.32 120 65 120 C65.103125 118.96875 65.20625 117.9375 65.3125 116.875 C65.99127797 113.04916055 67.11158795 110.36629975 69 107 C70.65 107 72.3 107 74 107 C75.75212029 121.269149 77.29365001 135.46003851 77.70874023 149.83813477 C77.73524658 150.72557373 77.76175293 151.6130127 77.7890625 152.52734375 C77.81540771 153.68351196 77.81540771 153.68351196 77.84228516 154.86303711 C78.00137221 157.01859281 78.46814994 158.90976519 79 161 C79.14033578 162.439735 79.24416857 163.88337149 79.31640625 165.328125 C79.35830078 166.12734375 79.40019531 166.9265625 79.44335938 167.75 C79.48267578 168.575 79.52199219 169.4 79.5625 170.25 C79.60568359 171.09046875 79.64886719 171.9309375 79.69335938 172.796875 C79.79908543 174.86440671 79.90001295 176.93218281 80 179 C80.93070313 178.68289063 81.86140625 178.36578125 82.8203125 178.0390625 C85.55337008 177.14595032 88.17401193 176.49870378 91 176 C91 175.34 91 174.68 91 174 C92.57421875 172.484375 92.57421875 172.484375 94.6875 170.75 C97.35349133 168.49924272 99.71010091 166.29950455 101.875 163.5625 C102.57625 162.716875 103.2775 161.87125 104 161 C104.66 161 105.32 161 106 161 C106.309375 160.21625 106.61875 159.4325 106.9375 158.625 C108 156 108 156 109 154 C109.66 154 110.32 154 111 154 C111.35578125 153.21882813 111.35578125 153.21882813 111.71875 152.421875 C113.41923223 149.20754883 115.44221309 146.24135157 117.5 143.25 C117.90347656 142.64800781 118.30695313 142.04601562 118.72265625 141.42578125 C119.76220271 139.91277798 120.87588843 138.45127837 122 137 C122.66 137 123.32 137 124 137 C124.309375 136.21625 124.61875 135.4325 124.9375 134.625 C126 132 126 132 127 130 C127.66 130 128.32 130 129 130 C129.268125 129.43796875 129.53625 128.8759375 129.8125 128.296875 C131.0803979 125.84449354 132.48972342 123.56072317 134 121.25 C134.515625 120.45078125 135.03125 119.6515625 135.5625 118.828125 C136.036875 118.22484375 136.51125 117.6215625 137 117 C137.66 117 138.32 117 139 117 C139.309375 116.21625 139.61875 115.4325 139.9375 114.625 C141 112 141 112 142 110 C142.66 110 143.32 110 144 110 C144.23074219 109.48824219 144.46148438 108.97648437 144.69921875 108.44921875 C146.49801365 105.06229863 148.6258022 101.95889728 150.8125 98.8125 C151.45155273 97.85053711 151.45155273 97.85053711 152.10351562 96.86914062 C154.10495332 94.00172534 155.41701164 92.20862243 158.76171875 91.01171875 C159.86966797 91.00591797 159.86966797 91.00591797 161 91 C161.33 91.33 161.66 91.66 162 92 C161.8391092 98.46038445 160.99918292 105.23683215 157.9375 111 C156.58186208 113.89202756 156.43485168 116.84732531 156 120 C155.12805658 122.90647806 154.14952052 125.65698235 152.9375 128.4375 C151.8618566 131.10318577 151.8618566 131.10318577 151.5 134.5 C151.034227 137.76041098 150.22280197 139.97793227 149 143 C147.08101762 149.20670865 145.27239864 155.45210062 143.9375 161.8125 C143.34910527 164.6023026 142.62327748 167.24454038 141.6875 169.9375 C140.10605999 174.51324014 138.79442793 179.14935853 137.5 183.8125 C137.29850342 184.53493896 137.09700684 185.25737793 136.8894043 186.00170898 C136.4840038 187.47179436 136.0874919 188.94435989 135.69991589 190.41924477 C135.24279731 192.10474896 134.75456157 193.78220413 134.23171711 195.44849205 C131.51671865 204.76273137 131.58253239 213.72740802 131.62768555 223.33447266 C131.62525298 225.15923265 131.62152917 226.98399131 131.61662292 228.80874634 C131.60726994 233.73477918 131.61659429 238.66061134 131.62995505 243.58662844 C131.64134105 248.76717406 131.63715628 253.94771082 131.63520813 259.12826538 C131.63432693 267.83179973 131.64536513 276.53525594 131.66381836 285.23876953 C131.68494329 295.25887085 131.68850325 305.27885747 131.6822564 315.29897654 C131.67653144 324.98241776 131.68224765 334.66581914 131.69342995 344.34925461 C131.69803875 348.44844688 131.69896603 352.54761449 131.6968441 356.64680862 C131.69493945 361.49128946 131.70322957 366.33565613 131.7189045 371.18011093 C131.72309385 372.94314349 131.72403474 374.70618775 131.72121429 376.46922302 C131.70922027 385.31896838 131.95236235 394.05708691 132.89216614 402.86239624 C132.96957777 403.60292476 133.0469894 404.34345329 133.12674683 405.10642207 C133.78916774 410.69282886 135.32347376 415.11743065 138 420 C138.31582031 420.80953125 138.63164063 421.6190625 138.95703125 422.453125 C141.70672844 429.16774135 145.93128669 434.44130222 151.6796875 438.80859375 C152.11539062 439.20175781 152.55109375 439.59492187 153 440 C153 440.66 153 441.32 153 442 C153.639375 442.2475 154.27875 442.495 154.9375 442.75 C156.61275453 443.43377736 158.28256186 444.13551436 159.9140625 444.91796875 C170.26414418 449.82955297 179.72639619 451.26735358 191.125 451.3125 C192.64492554 451.32071777 192.64492554 451.32071777 194.19555664 451.32910156 C203.77716251 451.23864284 212.06083087 450.02978835 220.5 445.375 C226.79464286 442 226.79464286 442 229 442 C229 441.34 229 440.68 229 440 C230.49609375 438.5625 230.49609375 438.5625 232.4375 437 C235.15188238 434.85474956 235.15188238 434.85474956 237 432 C237.66 432 238.32 432 239 432 C239.41958984 430.90558594 239.41958984 430.90558594 239.84765625 429.7890625 C240.91190989 427.21320793 242.12058214 424.82832361 243.4375 422.375 C251.35152782 406.54694435 250.15016393 388.77925574 250.17358398 371.53222656 C250.17990236 369.50387433 250.18666955 367.47552345 250.19384766 365.44717407 C250.20841807 361.10830218 250.22018164 356.76943529 250.22979546 352.43054962 C250.2453372 345.57344599 250.26927967 338.7163872 250.29469299 331.85931396 C250.36567995 312.37108185 250.425885 292.8828259 250.47680664 273.39453125 C250.50506059 262.60951611 250.54039881 251.82454748 250.58346039 241.03958106 C250.61027231 234.21768044 250.62815132 227.39583226 250.63949764 220.57388926 C250.64859113 216.34549396 250.66593474 212.11716312 250.68567657 207.88880539 C250.6931787 205.92232394 250.69723472 203.95582601 250.69767189 201.98933029 C250.69874699 199.3150436 250.71192648 196.64108837 250.72825623 193.96685791 C250.72563937 193.18069792 250.72302252 192.39453793 250.72032636 191.58455491 C250.77178241 186.22821759 250.77178241 186.22821759 253 184 C254.94838905 183.75390434 254.94838905 183.75390434 257.37857056 183.75949097 C258.75840874 183.75536697 258.75840874 183.75536697 260.16612244 183.75115967 C261.17816238 183.75835022 262.19020233 183.76554077 263.23291016 183.77294922 C264.2963414 183.77265717 265.35977264 183.77236511 266.45542908 183.77206421 C269.98338884 183.77346165 273.51113947 183.78904244 277.0390625 183.8046875 C279.48000981 183.80841615 281.92095862 183.81126382 284.36190796 183.81326294 C290.7965099 183.82091101 297.23102201 183.84056959 303.66558838 183.8626709 C310.22756739 183.88310406 316.78956087 183.89225924 323.3515625 183.90234375 C336.2344134 183.92381436 349.11720193 183.95758174 362 184 C364.60965992 187.89126042 364.27577279 192.0093805 364.24723816 196.51107788 C364.24965257 197.37849786 364.25206699 198.24591785 364.25455457 199.13962328 C364.26019893 202.05197994 364.2515225 204.96411797 364.24291992 207.87646484 C364.2439927 209.96268778 364.24593132 212.04891042 364.24867249 214.13513184 C364.25352764 219.80923706 364.24585433 225.48326385 364.23571944 231.1573596 C364.22693789 237.10056183 364.22869649 243.0437616 364.2290802 248.98696899 C364.22814283 258.97911897 364.21945334 268.97123863 364.20581055 278.96337891 C364.19012725 290.49207526 364.18481096 302.0207383 364.1855461 313.54944456 C364.18622383 325.83978356 364.17926494 338.13010982 364.1700995 350.42044497 C364.16797513 353.95033473 364.16725923 357.48022242 364.16686058 361.01011276 C364.16584954 366.58000642 364.15969129 372.14987254 364.14969444 377.71975708 C364.14679417 379.75537573 364.14553901 381.79099756 364.14612198 383.82661819 C364.15102599 411.39669417 364.15102599 411.39669417 361.5625 424.3125 C361.42835693 424.98490723 361.29421387 425.65731445 361.15600586 426.35009766 C360.77738852 428.2347605 360.38907027 430.11746728 360 432 C359.835 432.87785156 359.67 433.75570313 359.5 434.66015625 C358.5423008 439.50850847 356.97687617 443.9111622 355.0625 448.46484375 C354.3639788 450.13153588 353.69616494 451.8114928 353.0625 453.50390625 C350.99060562 459.02032503 348.42555555 463.89336429 345.26953125 468.87109375 C343.86069831 471.06075286 343.86069831 471.06075286 343 474 C342.34 474 341.68 474 341 474 C340.71125 474.763125 340.4225 475.52625 340.125 476.3125 C339 479 339 479 337 482 C336.34 482 335.68 482 335 482 C334.731875 482.763125 334.46375 483.52625 334.1875 484.3125 C333.04865495 486.88988618 332.18583329 488.26954864 330 490 C329.34 490 328.68 490 328 490 C327.731875 490.639375 327.46375 491.27875 327.1875 491.9375 C326 494 326 494 323 495 C323 495.66 323 496.32 323 497 C319.53846154 500 319.53846154 500 317 500 C317 500.66 317 501.32 317 502 C310.34917867 507.71173051 302.78080993 512.0386454 295 516 C294.25492188 516.38027344 293.50984375 516.76054688 292.7421875 517.15234375 C290.83382529 518.11378098 288.9181271 519.05823419 287 520 C286.07445312 520.48855469 285.14890625 520.97710938 284.1953125 521.48046875 C280.90100138 523.04707881 277.68784969 524.10889849 274.1875 525.125 C270.29155565 525.99570527 270.29155565 525.99570527 267 528 C264.88809873 528.47688093 262.77491757 528.94867241 260.65625 529.39453125 C257.94053946 530.01355351 255.29647369 530.77564353 252.625 531.5625 C248.0306042 532.84585078 243.65633774 533.44375529 238.8984375 533.69140625 C236.28944069 533.96918354 233.87332294 534.43922339 231.31884766 535.01928711 C230.50968903 535.20212753 229.7005304 535.38496796 228.86685181 535.573349 C228.25079071 535.71414383 227.63472961 535.85493866 227 536 C227.87005897 536.00423194 228.74011793 536.00846388 229.63654232 536.01282406 C250.77531922 536.1159829 271.91406187 536.22459817 293.0527792 536.33933926 C303.27516456 536.39469387 313.4975534 536.44817948 323.7199707 536.49731445 C332.62644981 536.54012894 341.53290299 536.58639991 350.43934208 536.63687855 C355.15827281 536.6635016 359.87719833 536.68835514 364.59615898 536.70907402 C369.03248661 536.72860648 373.46876477 536.75273988 377.90504837 536.78049088 C379.53813978 536.78987935 381.17124206 536.79754811 382.8043499 536.80341911 C385.02423873 536.81164994 387.24400652 536.82591773 389.46385193 536.84178162 C391.33186541 536.85146044 391.33186541 536.85146044 393.23761654 536.8613348 C396 537 396 537 397 538 C397.1328125 539.8125 397.1328125 539.8125 397.125 542 C397.12757813 542.721875 397.13015625 543.44375 397.1328125 544.1875 C397 546 397 546 396 547 C394.57709997 547.09775708 393.14936195 547.12598529 391.72310787 547.12649983 C390.79251869 547.12925958 389.8619295 547.13201932 388.90314063 547.13486269 C387.8667235 547.13280737 386.83030636 547.13075205 385.76248264 547.12863445 C384.12055144 547.13126401 384.12055144 547.13126401 382.44544992 547.13394669 C378.72782699 547.13864864 375.01024245 547.13613051 371.2926178 547.13371277 C368.62030816 547.13557864 365.94800149 547.13783819 363.27569288 547.14057809 C357.43994119 547.14574758 351.60419781 547.14714662 345.76844406 547.14612198 C337.09069069 547.14460202 328.41294655 547.14874772 319.73519497 547.1539966 C303.33805332 547.16368706 286.94091479 547.16648147 270.54377062 547.16705366 C257.88553299 547.1675125 245.2272966 547.16956716 232.56905937 547.17275429 C228.93067199 547.17365178 225.29228461 547.17454159 221.65389723 547.17542917 C220.29728283 547.17576074 220.29728283 547.17576074 218.91326208 547.17609901 C193.46063066 547.18225651 168.00799967 547.18619924 142.55536747 547.18575573 C141.59499047 547.18574015 140.63461348 547.18572457 139.64513415 547.18570852 C134.77709697 547.18562541 129.90905979 547.18552637 125.04102261 547.18542381 C123.59070235 547.1853939 123.59070235 547.1853939 122.1110827 547.18536337 C120.15581424 547.18532294 118.20054578 547.18528114 116.24527732 547.18523798 C85.81398544 547.18462502 55.3827047 547.19213436 24.95141602 547.20581055 C-9.20543667 547.22115457 -43.36228204 547.22977779 -77.5191384 547.22884732 C-81.15784013 547.22877269 -84.79654187 547.22872399 -88.43524361 547.22869301 C-89.33124377 547.22868135 -90.22724394 547.2286697 -91.15039562 547.22865769 C-105.60048653 547.22862686 -120.05056781 547.23502621 -134.50065585 547.24362527 C-149.01061998 547.25208168 -163.52056994 547.25310756 -178.03053515 547.24651595 C-186.66177013 547.24280684 -195.29296223 547.24469299 -203.9241927 547.25445829 C-209.68004914 547.26042278 -215.43587425 547.25920255 -221.1917292 547.25198779 C-224.47758256 547.24807614 -227.76333499 547.24850126 -231.04918586 547.25544515 C-234.5784164 547.26241417 -238.10741923 547.2572841 -241.6366415 547.24888897 C-242.67071747 547.25385715 -243.70479344 547.25882533 -244.77020505 547.26394406 C-246.16984411 547.25681784 -246.16984411 547.25681784 -247.59775871 547.24954766 C-248.80986049 547.24967999 -248.80986049 547.24967999 -250.04644918 547.249815 C-252 547 -252 547 -254 545 C-254.25 542 -254.25 542 -254 539 C-251.17173026 536.17173026 -249.34764347 536.7455812 -245.38201714 536.73828697 C-244.69085298 536.73429091 -243.99968883 536.73029485 -243.28758031 536.72617769 C-240.94839383 536.71512161 -238.6094407 536.71841609 -236.27023315 536.7215271 C-234.58558575 536.71652886 -232.90094075 536.71065447 -231.21629918 536.70397437 C-226.5689636 536.68810314 -221.92168835 536.68473979 -217.27432895 536.68332577 C-212.26952803 536.67964408 -207.26476069 536.66449486 -202.25997925 536.65071106 C-193.5828575 536.62839552 -184.90574763 536.61340811 -176.22860336 536.60334396 C-163.68278484 536.58878224 -151.13700768 536.56325255 -138.59121336 536.53501268 C-118.23839145 536.48949899 -97.88556361 536.45290315 -77.53271484 536.421875 C-57.7573136 536.39170817 -37.98192691 536.35736652 -18.20654297 536.31738281 C-16.98837422 536.31492126 -15.77020547 536.31245972 -14.51512252 536.30992357 C-8.40416257 536.29754934 -2.2932028 536.28509273 3.81775689 536.27259517 C54.54515096 536.16895887 105.27256318 536.07977827 156 536 C154.56743473 535.67254675 153.1342986 535.34759032 151.70092773 535.02368164 C150.5039048 534.751838 150.5039048 534.751838 149.28269958 534.47450256 C146.54588909 533.9056044 143.85006841 533.6254709 141.0625 533.4375 C136.20554649 533.10277325 136.20554649 533.10277325 134 532 C132.486452 531.90019265 130.96861653 531.86224305 129.45179749 531.85523987 C128.01535637 531.84489212 128.01535637 531.84489212 126.54989624 531.83433533 C125.49581573 531.83172195 124.44173523 531.82910858 123.35571289 531.82641602 C122.24833267 531.819729 121.14095245 531.81304199 120.00001526 531.80615234 C117.58932164 531.79207732 115.17861449 531.78019114 112.76790047 531.77020454 C108.95690626 531.75383861 105.14601249 531.73060339 101.33506775 531.70530701 C90.49759752 531.63440342 79.66009045 531.57429504 68.82250977 531.52319336 C62.20010705 531.4918839 55.57781469 531.45019928 48.95550346 531.40299797 C46.42648829 531.38694454 43.89744653 531.37463852 41.36839485 531.36609077 C37.83670422 531.35398145 34.30528628 531.32985031 30.77368164 531.30297852 C29.72162537 531.30238937 28.66956909 531.30180023 27.58563232 531.30119324 C26.62518509 531.29147491 25.66473785 531.28175659 24.67518616 531.27174377 C23.83987397 531.26751184 23.00456179 531.2632799 22.14393711 531.25891972 C20 531 20 531 17 529 C16.12109375 527.08203125 16.12109375 527.08203125 15.4375 524.8125 C15.20933594 524.07644531 14.98117187 523.34039063 14.74609375 522.58203125 C14.17655871 520.61102255 13.61404241 518.63798437 13.0546875 516.6640625 C11.98452378 512.94623446 10.84970975 509.25223836 9.6875 505.5625 C9.24341356 504.14846137 8.79940537 502.73439817 8.35546875 501.3203125 C8.13036621 500.60391602 7.90526367 499.88751953 7.67333984 499.14941406 C7.02425018 497.07741064 6.38025336 495.00390593 5.73828125 492.9296875 C3.3390494 485.18769988 0.84057236 477.48799199 -1.7421875 469.8046875 C-3.31800623 465.0772313 -4.79009183 460.31808794 -6.265625 455.55859375 C-7.31014879 452.19364052 -8.37059956 448.83744175 -9.5 445.5 C-10.85176105 441.49787599 -12.11753011 437.47002629 -13.375 433.4375 C-13.58970947 432.74897949 -13.80441895 432.06045898 -14.02563477 431.35107422 C-15.09529224 427.91626318 -16.16088586 424.48022544 -17.22265625 421.04296875 C-19.65522073 413.18881271 -22.20292487 405.38301912 -24.83300781 397.59277344 C-26.78662228 391.75726873 -28.48930625 385.88163001 -30.140625 379.953125 C-31.00356358 376.98775424 -32.03047977 374.15905139 -33.16015625 371.2890625 C-35.36253754 365.28629303 -37.1185995 359.10997828 -39 353 C-39.80977619 350.37414868 -40.62246476 347.74922355 -41.4375 345.125 C-41.63738525 344.47805176 -41.83727051 343.83110352 -42.04321289 343.16455078 C-43.18817297 339.48969266 -44.38892536 335.84042132 -45.6484375 332.203125 C-45.92502197 331.39858887 -46.20160645 330.59405273 -46.48657227 329.76513672 C-47.02330864 328.21188544 -47.56765772 326.66123656 -48.12084961 325.11376953 C-49.56515005 320.92572571 -50.30504005 317.49756726 -50 313 C-50.66 313 -51.32 313 -52 313 C-52.48919922 311.31583984 -52.48919922 311.31583984 -52.98828125 309.59765625 C-53.42936716 308.085844 -53.87079557 306.57413165 -54.3125 305.0625 C-54.5396167 304.28358398 -54.7667334 303.50466797 -55.00073242 302.70214844 C-56.18134416 298.6814373 -57.41247687 294.70102682 -58.8125 290.75 C-59.83033983 287.53576897 -60.32136104 285.32073072 -60 282 C-60.99 282.33 -61.98 282.66 -63 283 C-63.54023514 284.62070543 -64.0615975 286.2510098 -64.46875 287.91015625 C-65.21190974 290.83361553 -66.2249915 293.64983978 -67.21875 296.49609375 C-68.08245851 299.26427953 -68.76429492 302.06384388 -69.45556641 304.87915039 C-70.33115759 308.29002959 -71.37691095 311.64282461 -72.4375 315 C-72.65776855 315.70133057 -72.87803711 316.40266113 -73.10498047 317.12524414 C-74.59185215 321.81801218 -76.22819312 326.40940944 -78 331 C-79.60390871 335.59411038 -81.06452533 340.20538848 -82.39086914 344.88745117 C-83.69134199 349.39766823 -85.07117274 353.88439576 -86.4375 358.375 C-86.73720703 359.365 -87.03691406 360.355 -87.34570312 361.375 C-88.92720497 366.57577396 -90.56353708 371.74971075 -92.30102539 376.90039062 C-93.4229906 380.27059699 -94.45682309 383.66727408 -95.5 387.0625 C-100.44753944 403.01178037 -100.44753944 403.01178037 -103 407 C-107.02728497 408.34242832 -110.90639446 408.13902972 -115.10546875 408.12939453 C-116.03743073 408.13114685 -116.9693927 408.13289917 -117.92959595 408.13470459 C-121.01558281 408.1391121 -124.10151254 408.13618896 -127.1875 408.1328125 C-129.32836925 408.13348585 -131.46923843 408.13445615 -133.61010742 408.13571167 C-138.09912849 408.13718715 -142.58812968 408.13503887 -147.07714844 408.13037109 C-152.83761681 408.1246739 -158.59803859 408.1279537 -164.35850525 408.13394356 C-168.77991081 408.13755319 -173.20130529 408.13640872 -177.62271118 408.13381577 C-179.74703985 408.13314761 -181.87136952 408.13397104 -183.99569702 408.13629532 C-186.96200231 408.1388284 -189.92823163 408.13497191 -192.89453125 408.12939453 C-193.77670319 408.13141876 -194.65887512 408.13344299 -195.56777954 408.13552856 C-198.95917748 408.12368635 -201.76020582 408.07993139 -205 407 C-204.32390795 399.39396448 -201.58504564 392.56635268 -198.5 385.625 C-197.12815215 382.30970103 -196.08436167 379.06036376 -195.0625 375.625 C-193.91161593 371.78288513 -192.70734373 368.12894235 -191 364.5 C-188.82430836 359.86815648 -187.44942355 355.07277215 -185.9921875 350.17578125 C-184.88850516 346.64312871 -183.550283 343.27469761 -182.1328125 339.859375 C-180.64715616 336.10937347 -179.32642336 332.30871813 -178 328.5 C-176.10787215 323.07161952 -174.12058754 317.71619003 -171.93359375 312.3984375 C-170.44097968 308.56385574 -169.20914443 304.64540198 -167.93359375 300.734375 C-167 298 -167 298 -165.5 294.5625 C-164.11295011 291.26825652 -163.07939694 288.04762977 -162.0625 284.625 C-160.67114618 279.98539049 -159.05253663 275.68236329 -157 271.3046875 C-155.40008276 267.61737824 -154.23672687 263.79394903 -153 259.97265625 C-152.0896194 257.26640766 -151.08486827 254.64012863 -150 252 C-148.07625202 247.31510787 -146.50337166 242.54754619 -144.93359375 237.734375 C-144 235 -144 235 -142.5 231.5625 C-141.11295011 228.26825652 -140.07939694 225.04762977 -139.0625 221.625 C-137.88110952 217.67345253 -136.61767094 213.92549677 -134.875 210.1875 C-130.22432259 200.05566707 -131.22267503 193.38764366 -135 183 C-135.350625 182.195625 -135.70125 181.39125 -136.0625 180.5625 C-137.21582101 177.41008923 -137.52602519 174.31782365 -138 171 C-138.65882547 169.33021821 -139.32670517 167.66400009 -140 166 C-142.13592542 159.09161621 -144.02566268 152.15147337 -145.50390625 145.07421875 C-146.22475777 142.06026475 -147.26556647 139.17516855 -148.28125 136.25 C-148.99637385 134.01135144 -149.52087989 131.79977653 -150 129.5 C-150.61671836 126.54076846 -151.37577444 123.72099455 -152.359375 120.86328125 C-154.06478201 115.82693633 -155.68201327 110.7682337 -157.25 105.6875 C-157.53101563 104.80771484 -157.81203125 103.92792969 -158.1015625 103.02148438 C-158.49214844 101.74821289 -158.49214844 101.74821289 -158.890625 100.44921875 C-159.12813477 99.68955811 -159.36564453 98.92989746 -159.61035156 98.1472168 C-160.04254678 95.76553949 -159.75327792 94.27824579 -159 92 C-154.48279689 91.63374029 -154.48279689 91.63374029 -152.1875 93.375 C-151 95 -151 95 -151 97 C-150.34 97 -149.68 97 -149 97 C-146.70351351 99.5614657 -146 100.47967572 -146 104 C-144.515 104.495 -144.515 104.495 -143 105 C-141.57373047 106.62646484 -141.57373047 106.62646484 -140.1171875 108.7109375 C-139.58996094 109.46117187 -139.06273437 110.21140625 -138.51953125 110.984375 C-137.97683594 111.77328125 -137.43414062 112.5621875 -136.875 113.375 C-136.32457031 114.15617187 -135.77414062 114.93734375 -135.20703125 115.7421875 C-131.14132408 121.57602777 -131.14132408 121.57602777 -130 125 C-129.34 125 -128.68 125 -128 125 C-128 125.99 -128 126.98 -128 128 C-127.34 128 -126.68 128 -126 128 C-123.70351351 130.5614657 -123 131.47967572 -123 135 C-122.01 135.33 -121.02 135.66 -120 136 C-118.57373047 137.62646484 -118.57373047 137.62646484 -117.1171875 139.7109375 C-116.58996094 140.46117187 -116.06273437 141.21140625 -115.51953125 141.984375 C-114.97683594 142.77328125 -114.43414062 143.5621875 -113.875 144.375 C-113.32457031 145.15617188 -112.77414062 145.93734375 -112.20703125 146.7421875 C-108.14132408 152.57602777 -108.14132408 152.57602777 -107 156 C-106.34 156 -105.68 156 -105 156 C-102 160.38461538 -102 160.38461538 -102 163 C-101.34 163 -100.68 163 -100 163 C-95 168.47619048 -95 168.47619048 -95 171 C-94.42121094 171.2784375 -93.84242188 171.556875 -93.24609375 171.84375 C-91.08934113 172.95400874 -89.09563504 174.17946873 -87.0625 175.5 C-84.1268068 177.3601869 -81.30290849 178.86462521 -78 180 C-76.52621279 177.05242558 -76.68261156 174.26482729 -76.5 170.98046875 C-76.45939453 170.28488358 -76.41878906 169.5892984 -76.37695312 168.87263489 C-76.24715206 166.64447161 -76.12302061 164.41604725 -76 162.1875 C-75.87669446 159.96968602 -75.75204736 157.75199052 -75.62304688 155.53450012 C-75.50560211 153.51433078 -75.39329719 151.49386458 -75.28125 149.47338867 C-75.04454132 146.55007761 -74.58372028 143.86385002 -74 141 C-73.88075898 139.19478149 -73.80084241 137.38666842 -73.75390625 135.578125 C-73.70459961 134.03898437 -73.70459961 134.03898437 -73.65429688 132.46875 C-73.59354731 130.33863748 -73.53620408 128.20842483 -73.48242188 126.078125 C-73.04913946 112.99790112 -73.04913946 112.99790112 -71 108 C-70.01 107.34 -69.02 106.68 -68 106 C-64.18157149 109.95480095 -62.7334774 114.10642653 -60.9921875 119.1953125 C-60.14550536 121.58868958 -59.20483216 123.8314722 -58.125 126.125 C-55.8013279 131.18401839 -54.04629532 136.43499453 -52.28173828 141.70947266 C-51.06743837 145.26663771 -49.74363467 148.62374945 -48.015625 151.96484375 C-45.83810012 156.17835439 -44.27337706 160.51536448 -42.75 165 C-42.3478125 166.16208984 -42.3478125 166.16208984 -41.9375 167.34765625 C-41.28678233 169.23008951 -40.64267935 171.11480725 -40 173 C-36.94568828 172.66937863 -35.36362763 172.33913842 -33.0859375 170.21484375 C-27.6212981 162.94113423 -24.87628511 156.9758965 -24.2109375 147.8828125 C-24 146 -24 146 -23 144 C-22.63227595 141.52073549 -22.29952625 139.04997189 -22 136.5625 C-21.13224368 129.39673105 -21.13224368 129.39673105 -20 126 C-19.69459331 122.90775724 -19.49167689 119.81488281 -19.28125 116.71484375 C-19 114 -19 114 -18 112 C-17.63227595 109.52073549 -17.29952625 107.04997189 -17 104.5625 C-16.13224368 97.39673105 -16.13224368 97.39673105 -15 94 C-14.822485 92.35728178 -14.68108008 90.71052108 -14.5625 89.0625 C-13.91636329 81.41991427 -12.71953406 73.89810527 -10.9375 66.4375 C-9.95729448 62.22793519 -9.61886821 58.05982235 -9.27734375 53.7578125 C-8.76510503 48.66428382 -7.59704431 43.70752654 -6.49609375 38.71484375 C-5.2117351 32.65712069 -4.39478512 26.59348689 -3.69726562 20.44482422 C-3.35328154 17.47976811 -2.9474363 14.8423089 -2 12 C-1.69760965 9.13569136 -1.49234231 6.27080066 -1.28125 3.3984375 C-1 1 -1 1 0 0 Z " fill="#020202" transform="translate(569,302)"/>
<path d="M0 0 C0.86092255 -0.00419449 1.72184509 -0.00838898 2.6088562 -0.01271057 C4.02098389 -0.00428131 4.02098389 -0.00428131 5.4616394 0.00431824 C6.45533539 0.00241989 7.44903137 0.00052155 8.47283936 -0.00143433 C11.7632939 -0.00514458 15.05352864 0.00556445 18.34396362 0.01676941 C20.62414524 0.01796102 22.90432736 0.01841441 25.18450928 0.01815796 C29.96441721 0.01972318 34.74425029 0.02801687 39.5241394 0.04142761 C45.66595026 0.05843671 51.80767893 0.06224144 57.94951057 0.06148243 C62.65735668 0.06175368 67.36518465 0.06722729 72.07302475 0.07448387 C74.33855934 0.07767645 76.604096 0.07963931 78.86963272 0.08037758 C82.02794181 0.08253383 85.1861618 0.09126194 88.3444519 0.10197449 C89.28991882 0.1015213 90.23538574 0.10106812 91.20950317 0.1006012 C97.65917633 0.13276337 97.65917633 0.13276337 98.77365112 1.24723816 C98.38789606 5.97273767 97.27200117 9.89178948 95.52755737 14.28239441 C94.40363731 17.21157468 93.62116317 20.22797648 92.77365112 23.24723816 C92.05079576 25.45116131 91.30798437 27.6472239 90.55490112 29.84098816 C89.54435532 32.95346923 88.67131678 36.10040279 87.77365112 39.24723816 C87.01058672 41.72920554 86.24109651 44.208124 85.46115112 46.68473816 C85.24676392 47.36850525 85.03237671 48.05227234 84.81149292 48.75675964 C83.90468047 51.64885424 82.99581303 54.5403019 82.08712769 57.43180847 C81.41941741 59.55756041 80.75276386 61.68364183 80.08615112 63.80973816 C79.88401001 64.45161072 79.6818689 65.09348328 79.47360229 65.75480652 C78.30418137 69.47538267 78.30418137 69.47538267 77.25558472 73.23112488 C76.81467069 74.91793228 76.29977117 76.58503417 75.77365112 78.24723816 C73.44683677 79.41064534 72.10651387 79.37296714 69.51570129 79.3742218 C68.6224968 79.37704163 67.7292923 79.37986145 66.809021 79.38276672 C65.82660431 79.38074249 64.84418762 79.37871826 63.83200073 79.37663269 C62.79943649 79.37838501 61.76687225 79.38013733 60.70301819 79.38194275 C57.27732684 79.38635738 53.85168678 79.38342483 50.42599487 79.38005066 C48.05470266 79.38072376 45.68341051 79.38169383 43.31211853 79.38294983 C38.33794499 79.38442623 33.36378938 79.38227388 28.38961792 79.37760925 C21.99780063 79.37190891 15.60602531 79.37519328 9.21420956 79.38118172 C4.31678447 79.38478623 -0.58063058 79.38364931 -5.47805595 79.38105392 C-7.83569786 79.38038451 -10.19334066 79.38121358 -12.55098152 79.38353348 C-15.8387101 79.38605853 -19.12636962 79.38222163 -22.41409302 79.37663269 C-23.39853394 79.37865692 -24.38297485 79.38068115 -25.39724731 79.38276672 C-26.28763199 79.3799469 -27.17801666 79.37712708 -28.09538269 79.3742218 C-28.87354371 79.37384478 -29.65170473 79.37346775 -30.45344639 79.3730793 C-32.22634888 79.24723816 -32.22634888 79.24723816 -33.22634888 78.24723816 C-32.68672091 71.63679554 -30.49844036 66.06796276 -27.78884888 60.05973816 C-26.33159278 56.74296256 -25.32081643 53.34303528 -24.28884888 49.87223816 C-22.88497945 45.18374294 -21.23427194 40.84219668 -19.15994263 36.41911316 C-17.81264029 33.28480312 -16.93771699 30.05124036 -16.00369263 26.77458191 C-14.96417337 23.39483839 -13.62228404 20.17400975 -12.26541138 16.91130066 C-10.70738973 12.91667374 -9.48630056 8.82115448 -8.25369263 4.71598816 C-6.54712774 0.61504136 -4.11068602 -0.00299333 0 0 Z " fill="#020202" transform="translate(352.2263488769531,753.7527618408203)"/>
<path d="M0 0 C13.26460336 -0.023131 26.52920195 -0.04091897 39.79382133 -0.05181217 C45.95256129 -0.05703933 52.11128749 -0.06413398 58.27001953 -0.07543945 C64.20924134 -0.08627422 70.14844989 -0.0922781 76.08768082 -0.09487724 C78.35797459 -0.09673042 80.6282676 -0.100349 82.89855576 -0.10573006 C86.06894268 -0.11294828 89.2392742 -0.11399061 92.40966797 -0.11352539 C93.35625275 -0.11712067 94.30283752 -0.12071594 95.27810669 -0.12442017 C96.13909973 -0.1230455 97.00009277 -0.12167084 97.88717651 -0.12025452 C98.637516 -0.12117631 99.38785549 -0.1220981 100.16093254 -0.12304783 C102 0 102 0 104 1 C103.74225629 2.41910652 103.46816835 3.83524899 103.1875 5.25 C102.96126953 6.43335938 102.96126953 6.43335938 102.73046875 7.640625 C101.81655248 10.5925257 101.31797221 11.89026619 99 14 C95.74402273 14.61026258 92.50747918 14.50398153 89.2043457 14.45410156 C88.19928986 14.45468567 87.19423401 14.45526978 86.15872192 14.45587158 C82.83072587 14.45308088 79.50362118 14.42194146 76.17578125 14.390625 C73.87078847 14.38316614 71.56578935 14.37747154 69.26078796 14.37347412 C63.18938742 14.35818995 57.11836867 14.31888374 51.04711914 14.2746582 C44.85373093 14.23376573 38.66028112 14.21547596 32.46679688 14.1953125 C20.31103002 14.15239253 8.15554674 14.08410724 -4 14 C-4.56561146 8.34388537 -2.71391278 4.77357872 0 0 Z " fill="#020202" transform="translate(354,734)"/>
<path d="M0 0 C0.74166633 0.00054477 1.48333265 0.00108953 2.24747372 0.00165081 C3.09860744 -0.00254368 3.94974117 -0.00673817 4.82666683 -0.01105976 C5.76232983 -0.00544025 6.69799282 0.00017925 7.66200924 0.00596905 C8.64580563 0.0040707 9.62960201 0.00217236 10.64321041 0.00021648 C13.90663691 -0.00349901 17.16984263 0.00722323 20.43324947 0.01842022 C22.69244008 0.0196116 24.9516312 0.02006527 27.21082211 0.01980877 C31.94962818 0.02137493 36.68835885 0.02967528 41.42714596 0.04307842 C47.5162986 0.06007813 53.60536834 0.06389257 59.69454193 0.06313324 C64.36035619 0.06340451 69.02615215 0.06887869 73.69196033 0.07613468 C75.93795731 0.07932761 78.18395636 0.0812902 80.42995548 0.08202839 C83.56203055 0.08418482 86.69401581 0.0929136 89.82607174 0.1036253 C90.76375896 0.10317211 91.70144619 0.10271893 92.66754818 0.10225201 C99.06486944 0.13441519 99.06486944 0.13441519 100.17934322 1.24888897 C101.01884335 6.7895898 99.00941064 8.58875413 96.17934322 14.24888897 C62.84934322 14.24888897 29.51934322 14.24888897 -4.82065678 14.24888897 C-6.82065678 10.24888897 -6.82065678 10.24888897 -6.43003178 8.17857647 C-6.14643803 7.50052959 -5.86284428 6.82248272 -5.57065678 6.12388897 C-5.29737553 5.44068584 -5.02409428 4.75748272 -4.74253178 4.05357647 C-3.55558808 1.72998331 -2.67846167 0.36615334 0 0 Z " fill="#020202" transform="translate(363.8206567764282,713.7511110305786)"/>
<path d="M0 0 C3.55894033 3.12492321 5.36011302 5.64677768 5.9609375 10.40625 C5.95320312 11.5096875 5.94546875 12.613125 5.9375 13.75 C5.94910156 15.40515625 5.94910156 15.40515625 5.9609375 17.09375 C5.52384414 20.55621508 4.6730509 22.49084077 2.5625 25.25 C1.9025 25.25 1.2425 25.25 0.5625 25.25 C0.5625 25.91 0.5625 26.57 0.5625 27.25 C-5.45960579 29.98732082 -9.95811921 31.00508274 -16.4375 29.25 C-21.23411805 26.80643986 -24.13005468 24.13113432 -26.4375 19.25 C-27.46731563 13.45284824 -27.26996893 8.68317201 -23.875 3.75 C-17.26851559 -3.74966878 -8.63104452 -4.3939863 0 0 Z " fill="#020202" transform="translate(581.4375,262.75)"/>
<path d="M0 0 C1.11246094 -0.00773437 2.22492188 -0.01546875 3.37109375 -0.0234375 C6.85449119 0.41145422 8.78938464 1.24980879 11.5625 3.375 C11.5625 4.035 11.5625 4.695 11.5625 5.375 C12.2225 5.375 12.8825 5.375 13.5625 5.375 C16.6585947 10.40615389 17.3641521 14.60927144 16.5625 20.375 C15.0625 23.9375 15.0625 23.9375 13.5625 26.375 C12.9025 26.375 12.2425 26.375 11.5625 26.375 C11.2325 27.365 10.9025 28.355 10.5625 29.375 C5.77637755 32.60563266 1.17463128 33.39883476 -4.4375 32.375 C-9.01971426 30.37028126 -12.93096127 27.78020429 -15.4375 23.375 C-15.90625 19.87890625 -15.90625 19.87890625 -15.9375 15.9375 C-15.9684375 14.63941406 -15.999375 13.34132813 -16.03125 12.00390625 C-15.29559019 7.50766963 -13.92007052 6.21209409 -10.4375 3.375 C-9.80714844 2.78460938 -9.17679687 2.19421875 -8.52734375 1.5859375 C-5.61811668 -0.09978286 -3.34093739 -0.02317413 0 0 Z " fill="#020202" transform="translate(406.4375,352.625)"/>
<path d="M0 0 C11.66193434 -0.62289264 11.66193434 -0.62289264 16.625 1.6875 C20.67791497 5.63375931 22.74657345 9.46573453 23.3125 15.125 C22.91435483 20.06200016 21.82025402 23.89637195 19 28 C14.94072786 31.35877827 10.24807623 32.6857874 5.01953125 32.38671875 C0.07695539 31.44026805 -3.84741737 29.4872034 -6.9375 25.5 C-9.45031686 19.58748974 -9.85147339 14.43278112 -7.6875 8.25 C-5.28136882 3.61596958 -5.28136882 3.61596958 -3 2 C-2.01 2 -1.02 2 0 2 C0 1.34 0 0.68 0 0 Z " fill="#020202" transform="translate(727,353)"/>
<path d="M0 0 C0.79921875 0.11085938 1.5984375 0.22171875 2.421875 0.3359375 C3.02515625 0.43132812 3.6284375 0.52671875 4.25 0.625 C4.25 1.285 4.25 1.945 4.25 2.625 C5.24 2.625 6.23 2.625 7.25 2.625 C12.27226169 10.44513065 12.27226169 10.44513065 12.1875 14.9375 C11.36303976 17.30095268 10.50028084 19.45784654 9.25 21.625 C8.59 21.625 7.93 21.625 7.25 21.625 C6.92 22.615 6.59 23.605 6.25 24.625 C2.5443309 26.63664894 -0.5798781 27.12541463 -4.75 26.625 C-8.40182427 25.18451495 -11.08414106 23.37677622 -13.6875 20.4375 C-15.21738613 16.38780142 -15.66046695 12.88598533 -14.75 8.625 C-11.32097217 2.75459313 -6.98705644 -1.0275083 0 0 Z " fill="#020202" transform="translate(643.75,378.375)"/>
<path d="M0 0 C3.73229825 1.80746519 5.03483012 3.07673497 7.05078125 6.83984375 C7.42203125 7.99484375 7.79328125 9.14984375 8.17578125 10.33984375 C8.39878906 10.98824219 8.62179687 11.63664062 8.8515625 12.3046875 C9.46093054 16.12975678 7.1708665 19.19323279 5.17578125 22.33984375 C2.81473789 24.86371769 1.29035188 25.30899781 -2.07421875 26.21484375 C-7.40428996 26.39251279 -11.64365263 25.16870566 -15.76171875 21.71484375 C-18.05937943 16.57889634 -18.24342733 11.93807644 -16.82421875 6.52734375 C-13.03363745 0.4861048 -7.0697534 -2.55843324 0 0 Z " fill="#020202" transform="translate(502.82421875,376.66015625)"/>
</svg>
